<svg width="137" height="35" viewBox="0 0 137 35" fill="none" xmlns="http://www.w3.org/2000/svg">
<path d="M5.03547 21V7.608H0.667469V4.68H12.6675V7.608H8.34747V21H5.03547ZM14.7643 21V4.68H18.0763V11.352H24.1483V4.68H27.4603V21H24.1483V14.232H18.0763V21H14.7643ZM31.0065 21V4.68H41.5665V7.56H34.3185V11.376H40.1265V14.208H34.3185V18.12H41.5665V21H31.0065ZM70.6627 21V4.68H73.9747V11.352H80.0467V4.68H83.3587V21H80.0467V14.232H73.9747V21H70.6627ZM85.5369 21L89.2089 4.68H95.4969L99.1689 21H95.8569L95.2089 18.048H89.4969L88.8489 21H85.5369ZM90.1209 15.168H94.5849L92.9289 7.416H91.7769L90.1209 15.168ZM101.342 21V4.68H104.654V18.072H110.63V21H101.342ZM111.295 21L114.967 4.68H121.255L124.927 21H121.615L120.967 18.048H115.255L114.607 21H111.295ZM115.879 15.168H120.343L118.687 7.416H117.535L115.879 15.168ZM127.1 21V4.68H130.412V18.072H136.388V21H127.1Z" fill="black"/>
<path d="M2.74 33V26.2H7.14V27.4H4.12V28.99H6.54V30.17H4.12V31.8H7.14V33H2.74ZM20.1271 33L22.0871 29.74L20.1271 26.2H21.6571L22.9171 28.7L24.2071 26.2H25.6371L23.6771 29.67L25.6371 33H24.1071L22.8471 30.65L21.5571 33H20.1271ZM38.9705 33V26.2H41.4705C43.0705 26.2 43.8905 26.98 43.8905 28.56C43.8905 30.14 43.0705 31.02 41.4705 31.02H40.3505V33H38.9705ZM40.3505 29.84H41.4605C42.1505 29.84 42.4905 29.42 42.4905 28.56C42.4905 27.71 42.1505 27.38 41.4605 27.38H40.3505V29.84ZM57.3591 33V26.2H58.7391V31.78H61.2291V33H57.3591ZM77.0373 33.12C74.8973 33.12 74.2173 31.94 74.2173 29.64C74.2173 27.34 74.8973 26.08 77.0373 26.08C79.1773 26.08 79.8573 27.34 79.8573 29.64C79.8573 31.94 79.1773 33.12 77.0373 33.12ZM77.0373 31.92C78.1573 31.92 78.4373 31.21 78.4373 29.64C78.4373 28.07 78.1573 27.28 77.0373 27.28C75.9173 27.28 75.6373 28.07 75.6373 29.64C75.6373 31.21 75.9173 31.92 77.0373 31.92ZM93.5408 33V26.2H96.1808C97.7308 26.2 98.5808 26.89 98.5808 28.44C98.5808 29.38 98.2008 30.01 97.5808 30.4L98.5508 33H97.0408L96.2508 30.72H94.9208V33H93.5408ZM94.9208 29.54H96.2008C96.8908 29.54 97.1708 29.06 97.1708 28.46C97.1708 27.81 96.8408 27.38 96.1808 27.38H94.9208V29.54ZM112.242 33V26.2H116.642V27.4H113.622V28.99H116.042V30.17H113.622V31.8H116.642V33H112.242ZM130.279 33V26.2H132.919C134.469 26.2 135.319 26.89 135.319 28.44C135.319 29.38 134.939 30.01 134.319 30.4L135.289 33H133.779L132.989 30.72H131.659V33H130.279ZM131.659 29.54H132.939C133.629 29.54 133.909 29.06 133.909 28.46C133.909 27.81 133.579 27.38 132.919 27.38H131.659V29.54Z" fill="black"/>
<path fill-rule="evenodd" clip-rule="evenodd" d="M57.3164 18.9274C50.7065 16.9466 46.9346 9.91717 48.8917 3.22685C49.2335 2.0584 49.7276 0.977643 50.3454 0C48.1016 1.58158 46.3534 3.91644 45.5168 6.77633C43.5598 13.4666 47.3317 20.496 53.9416 22.4769C59.3972 24.1118 65.0807 21.7966 68 17.1765C64.9949 19.2948 61.1009 20.0615 57.3164 18.9274Z" fill="#5E8B7E"/>
<path d="M58 16C58 12.6862 55.3138 10 52 10C55.3138 10 58 7.31384 58 4C58 7.31384 60.6862 10 64 10C60.6862 10 58 12.6862 58 16Z" fill="#5E8B7E"/>
</svg>
